<?xml version="1.0" encoding="utf-8"?>
<!-- Generator: Adobe Illustrator 18.1.1, SVG Export Plug-In . SVG Version: 6.00 Build 0)  -->
<svg version="1.1" id="Layer_1" xmlns="http://www.w3.org/2000/svg" xmlns:xlink="http://www.w3.org/1999/xlink" x="0px" y="0px"
	 viewBox="0 0 640 640" enable-background="new 0 0 640 640" xml:space="preserve">
<g>
	<path fill-rule="evenodd" clip-rule="evenodd" fill="#838383" d="M320.1,628.2C149.7,628.2,11,489.7,11,319.5
		C11,149.3,149.7,10.8,320.1,10.8c170.4,0,309.1,138.5,309.1,308.7C629.2,489.7,490.5,628.2,320.1,628.2L320.1,628.2z M580.8,361.8
		c-9-2.8-81.7-24.5-164.4-11.3c34.5,94.8,48.6,171.9,51.3,188C526.9,498.5,569,435.1,580.8,361.8L580.8,361.8z M423.2,562.6
		c-3.9-23.1-19.3-103.7-56.3-199.9c-0.6,0.2-1.2,0.4-1.7,0.6c-148.9,51.8-202.4,154.9-207.1,164.6c44.8,34.9,101,55.7,162,55.7
		C356.7,583.6,391.5,576.1,423.2,562.6L423.2,562.6z M124,496.2c6-10.2,78.4-130,214.6-174c3.4-1.1,6.9-2.2,10.4-3.1
		c-6.6-15-13.8-30-21.4-44.7c-131.8,39.4-259.8,37.8-271.3,37.5c-0.1,2.7-0.1,5.4-0.1,8.1C56.1,387.6,81.8,449.5,124,496.2
		L124,496.2z M61.7,265.9c11.8,0.2,120.6,0.6,244.1-32.1C262,156.1,214.8,90.8,207.9,81.3C134,116.1,78.8,184.1,61.7,265.9
		L61.7,265.9z M258.3,63.6c7.3,9.8,55.2,75,98.5,154.3c93.9-35.1,133.6-88.5,138.4-95.2c-46.6-41.3-107.9-66.4-175-66.4
		C298.8,56.3,278.1,58.8,258.3,63.6L258.3,63.6z M524.5,153.2c-5.6,7.5-49.8,64.2-147.4,104c6.1,12.6,12,25.3,17.5,38.2
		c1.9,4.6,3.8,9.1,5.7,13.6c87.8-11,175.1,6.6,183.8,8.5C583.5,255.2,561.2,198,524.5,153.2L524.5,153.2z"/>
</g>
</svg>
