<?xml version="1.0" encoding="utf-8"?>
<!-- Generator: Adobe Illustrator 18.1.1, SVG Export Plug-In . SVG Version: 6.00 Build 0)  -->
<svg version="1.1" id="Layer_1" xmlns="http://www.w3.org/2000/svg" xmlns:xlink="http://www.w3.org/1999/xlink" x="0px" y="0px"
	 viewBox="0 0 640 640" enable-background="new 0 0 640 640" xml:space="preserve">
<path fill="#838383" d="M582.8,11.8H58.9c-25,0-45.4,19.8-45.4,44.3v526.1c0,24.5,20.3,44.4,45.4,44.4h523.9
	c25.1,0,45.5-19.9,45.5-44.4V56.1C628.3,31.6,607.9,11.8,582.8,11.8z M104.7,242.3h91.2v293.4h-91.2V242.3z M150.3,96.4
	c29.2,0,52.8,23.7,52.8,52.9c0,29.2-23.7,52.9-52.8,52.9c-29.2,0-52.9-23.7-52.9-52.9C97.4,120.1,121.1,96.4,150.3,96.4
	 M253.1,242.3h87.5v40.1h1.2c12.2-23.1,41.9-47.4,86.3-47.4c92.3,0,109.4,60.8,109.4,139.8v160.9h-91.1V393c0-34-0.6-77.8-47.4-77.8
	c-47.4,0-54.7,37.1-54.7,75.3v145.1h-91.1V242.3z"/>
</svg>
